<svg width="949" height="612" viewBox="0 0 949 612" fill="none" xmlns="http://www.w3.org/2000/svg">
<path d="M631.526 34.5336C545.691 76.4065 412.836 68.9998 337 34.5336C261.164 0.0675201 160 18.9999 112.5 58.5C65.4403 97.634 49.2993 139.222 20.3168 213.896L19.5 216C-9.99999 292 -9.99997 441.5 48.9999 523C108 604.5 267.224 633.161 372.862 594.661C478.5 556.161 537.862 500 625 538.5C712.138 577 773.474 614.491 862.362 534.161C953.105 452.154 958.5 267 939.5 180C920.5 93 888 46.9999 829 18.9999C770 -9.00006 717.362 -7.33923 631.526 34.5336Z" fill="white"/>
</svg>
