<svg width="2624" height="110" viewBox="0 0 2624 110" fill="none" xmlns="http://www.w3.org/2000/svg">
<g clip-path="url(#clip0_507_3)">
<path d="M984.308 2407.51C659.562 2373.97 479.785 2445.76 -9.73718 2407.51C-499.26 2369.25 -94.2626 89.9336 -2.75803 49.8147C88.7465 9.69583 534.769 -3 694.277 -3C1166.72 -3 1267.73 103.411 1746.83 116.341C2271.12 130.49 2402.97 21.5543 2921.39 15.7899C3439.81 10.0254 4019.84 52.48 4428.71 104.36C4837.58 156.24 5132 92.3071 5132 92.3071V2516C5132 2516 2858.39 2401.26 2538.88 2382.64C2219.37 2364.03 1833.35 2432.85 1585.34 2451.02C1337.32 2469.19 1309.05 2441.05 984.308 2407.51Z" fill="#DAF4FF"/>
<path d="M618.107 2510.67C452.084 2476.99 269.625 2466.66 -3.86047 2556.65C-277.346 2646.64 0 89 0 89C0 89 110.455 0.533467 303.681 0.533467C545.214 0.533467 688.333 63.8536 933.268 76.8372C1201.3 91.0455 1418.33 6.32203 1683.37 0.533467C1948.41 -5.2551 2055.42 36.8436 2264.45 88.9406C2473.48 141.038 2624 76.8372 2624 76.8372L2648 2510.67C2648 2510.67 2345.5 2539.16 2096.5 2510.67C1847.5 2482.17 1628.61 2528.76 1347.57 2556.65C1066.53 2584.54 784.129 2544.34 618.107 2510.67Z" fill="#00AFF5"/>
</g>
<defs>
<clipPath id="clip0_507_3">
<rect width="2624" height="110" fill="white"/>
</clipPath>
</defs>
</svg>
