<svg width="2624" height="98" viewBox="0 0 2624 98" fill="none" xmlns="http://www.w3.org/2000/svg">
<g clip-path="url(#clip0_102_48)">
<g clip-path="url(#clip1_102_48)">
<path d="M216.148 -937L3732.82 -882.046C3805.22 -587.648 3732.82 101 3732.82 101C3732.82 101 3415.55 6.01013 3039.58 -15C2663.61 -36.0101 2287.32 132.5 1972.17 45.5C1657.03 -41.5 1343.63 -44 989.872 44.4728C636.112 132.946 216.148 67.9841 216.148 67.9841C216.148 67.9841 203.758 -115.19 165.548 -452.767C127.338 -790.343 216.148 -937 216.148 -937Z" fill="#1E1A83"/>
<path d="M-182.851 -922L2749.17 -867.046C2809.53 -572.648 2749.17 116 2749.17 116C2749.17 116 2554.81 35.4612 2241.34 14.4511C1927.88 -6.55902 1633.41 147.515 1347.32 59.4728C1061.23 -28.5696 763.413 -8.7937 462.24 59.4728C161.066 127.739 -182.851 82.9841 -182.851 82.9841C-182.851 82.9841 -193.182 -100.19 -225.039 -437.767C-256.897 -775.343 -182.851 -922 -182.851 -922Z" fill="#030045"/>
</g>
</g>
<defs>
<clipPath id="clip0_102_48">
<rect width="2624" height="98" fill="white"/>
</clipPath>
<clipPath id="clip1_102_48">
<rect width="2626" height="1230" fill="white" transform="translate(-2 -980)"/>
</clipPath>
</defs>
</svg>
