<svg width="2624" height="80" viewBox="0 0 2624 80" fill="none" xmlns="http://www.w3.org/2000/svg">
<g clip-path="url(#clip0_102_48)">
<g clip-path="url(#clip1_102_48)">
<path d="M216.148 -136L3732.82 -81.0457C3805.22 213.352 3732.82 902 3732.82 902C3732.82 902 3415.55 807.01 3039.58 786C2663.61 764.99 2287.32 933.5 1972.17 846.5C1657.03 759.5 1343.63 757 989.872 845.473C636.112 933.946 216.148 868.984 216.148 868.984C216.148 868.984 203.758 685.81 165.548 348.233C127.338 10.6568 216.148 -136 216.148 -136Z" fill="#1E1A83"/>
<path d="M-182.851 -121L2749.17 -66.0457C2809.53 228.352 2749.17 917 2749.17 917C2749.17 917 2554.81 836.461 2241.34 815.451C1927.88 794.441 1633.41 948.515 1347.32 860.473C1061.23 772.43 763.413 792.206 462.24 860.473C161.066 928.739 -182.851 883.984 -182.851 883.984C-182.851 883.984 -193.182 700.81 -225.039 363.233C-256.897 25.6568 -182.851 -121 -182.851 -121Z" fill="#030045"/>
</g>
<path d="M984.308 -78.4927C659.562 -112.031 479.785 -40.238 -9.73718 -78.4927C-499.26 -116.747 -94.2626 -2396.07 -2.75803 -2436.19C88.7465 -2476.3 534.769 -2489 694.277 -2489C1166.72 -2489 1267.73 -2382.59 1746.83 -2369.66C2271.12 -2355.51 2402.97 -2464.45 2921.39 -2470.21C3439.81 -2475.97 4019.84 -2433.52 4428.71 -2381.64C4837.58 -2329.76 5132 -2393.69 5132 -2393.69V30C5132 30 2858.39 -84.7417 2538.88 -103.358C2219.36 -121.974 1833.35 -53.1489 1585.34 -34.978C1337.32 -16.8074 1309.05 -44.9539 984.308 -78.4927Z" fill="#DAF4FF"/>
<path d="M618.107 24.665C452.084 -9.01392 269.625 -19.3367 -3.86049 70.6492C-277.346 160.635 1.63908 -2397.06 1.63908 -2397.06C1.63908 -2397.06 110.455 -2485.47 303.681 -2485.47C545.214 -2485.47 688.333 -2422.15 933.268 -2409.16C1201.3 -2394.95 1418.33 -2479.68 1683.37 -2485.47C1948.41 -2491.26 2055.42 -2449.16 2264.45 -2397.06C2473.48 -2344.96 2624 -2409.16 2624 -2409.16L2648 24.665C2648 24.665 2345.5 53.1614 2096.5 24.665C1847.5 -3.8313 1628.61 42.7588 1347.57 70.6492C1066.53 98.5396 784.129 58.344 618.107 24.665Z" fill="#00AFF5"/>
</g>
<defs>
<clipPath id="clip0_102_48">
<rect width="2624" height="80" fill="white"/>
</clipPath>
<clipPath id="clip1_102_48">
<rect width="2626" height="1230" fill="white" transform="translate(-2 -179)"/>
</clipPath>
</defs>
</svg>
